<svg xmlns="http://www.w3.org/2000/svg" data-name="Layer 1" viewBox="0 0 512 512" id="medical"><path fill="#ffcd85" d="M419.42846,435.27761V404.30716a41.678,41.678,0,0,1,10.076-27.16088l68.71044-79.98146a31.92817,31.92817,0,0,0,6.37935-29.99038l-39.632-132.11673a16.40757,16.40757,0,0,0-15.73093-11.66558h0a16.37285,16.37285,0,0,0-16.37914,17.45214l7.97564,116.43041-55.27114,66.78446L346.8184,435.27761Z"></path><path fill="#ffcd85" d="M400.24933,312.04481,437.8762,274.936a29.4593,29.4593,0,0,0,.27065-41.67912l-.51988-.52622a11.684,11.684,0,0,0-16.375-.24406L353.43156,297.1595a70.863,70.863,0,0,0-21.99149,51.28428v89.31731l66.00835-15.78817Z"></path><path fill="#ffc166" d="M414.489,298.00117l23.39188-23.06981a29.45277,29.45277,0,0,0,.266-41.67452l-.52213-.52826a11.68363,11.68363,0,0,0-16.37289-.242l-2.02222,1.92847a29.45911,29.45911,0,0,1-1.35351,40.521l-37.627,37.10888h0A48.76155,48.76155,0,0,0,414.489,298.00117Z"></path><path fill="#66c1ff" d="M317.47077,512V434.70622a20.94586,20.94586,0,0,1,20.99465-20.89672h73.34891A20.94585,20.94585,0,0,1,432.809,434.70622V512Z"></path><polygon fill="#4eb7ff" points="432.809 437.75 317.471 437.75 317.471 437.75 317.471 452.75 317.471 452.75 432.809 452.75 432.809 437.75"></polygon><path fill="#ffcd85" d="M94.01206,435.27761V404.30716a41.678,41.678,0,0,0-10.076-27.16088L15.2256,297.16482a31.92812,31.92812,0,0,1-6.37935-29.99038l39.632-132.11673a16.40757,16.40757,0,0,1,15.73093-11.66558h0a16.37285,16.37285,0,0,1,16.37914,17.45214L72.61275,257.27468l55.27113,66.78446,38.73824,111.21847Z"></path><path fill="#ffcd85" d="M113.1912,312.04481,75.56433,274.936a29.45931,29.45931,0,0,1-.27066-41.67912l.51989-.52622a11.684,11.684,0,0,1,16.375-.24406L160.009,297.1595a70.863,70.863,0,0,1,21.99148,51.28428v89.31731l-66.00834-15.78817Z"></path><path fill="#ffc166" d="M98.95151,298.00117,75.55963,274.93136a29.45277,29.45277,0,0,1-.266-41.67452l.52212-.52826a11.68364,11.68364,0,0,1,16.3729-.242l2.02221,1.92847a29.45912,29.45912,0,0,0,1.35352,40.521l37.62695,37.10888h0A48.76155,48.76155,0,0,1,98.95151,298.00117Z"></path><path fill="#66c1ff" d="M195.96975,512V434.70622A20.94585,20.94585,0,0,0,174.9751,413.8095H101.62619a20.94586,20.94586,0,0,0-20.99465,20.89672V512Z"></path><polygon fill="#4eb7ff" points="80.632 437.75 195.97 437.75 195.97 437.75 195.97 452.75 195.97 452.75 80.632 452.75 80.632 437.75"></polygon><path fill="#dedede" d="M256.00018,367.666a7.49944,7.49944,0,0,1-7.5-7.5V42.5a7.5,7.5,0,0,1,15,0V360.166A7.49944,7.49944,0,0,1,256.00018,367.666Z"></path><path fill="#ff7070" d="M380.2702,131.25h-124.27v-57l31.68994-16.39014a37.50813,37.50813,0,0,1,45.65015,8.83008l49.96,57.9502A3.9985,3.9985,0,0,1,380.2702,131.25Z"></path><path fill="#ff4e4e" d="M383.30023,124.64014l-49.96-57.9502a37.51553,37.51553,0,0,0-38.4187-11.66577,37.42767,37.42767,0,0,1,18.4187,11.66577l49.96,57.9502a3.9985,3.9985,0,0,1-3.03,6.60986h20A3.9985,3.9985,0,0,0,383.30023,124.64014Z"></path><path fill="#ff7070" d="M256.00018,74.25v57h-124.27a3.9985,3.9985,0,0,1-3.03-6.60986l49.96-57.9502a37.50813,37.50813,0,0,1,45.65015-8.83008Z"></path><path fill="#676e87" d="M291.51483,367.668a7.50859,7.50859,0,0,1-7.32324-9.15039c2.01562-8.94824-13.96-16.23926-35.05469-24.8418-19.792-8.07129-38.48633-15.69433-42.88183-30.07715a17.71955,17.71955,0,0,1,1.34082-13.86035c7.03418-13.06348,29.63574-19.71875,55.80664-27.4248,12.167-3.583,24.749-7.28711,34.16308-11.42383,11.76563-5.16992,13.81153-8.93653,14.14453-10.31641a2.22124,2.22124,0,0,0-.33691-1.98047c-5.34961-8.35547-36.32813-14.46191-61.21973-19.36816-39.12011-7.71191-72.90527-14.37109-77.96386-33.74805a15.76806,15.76806,0,0,1,1.80273-12.416c4.69824-7.75879,15.82031-13.16895,37.19043-18.08887a7.49978,7.49978,0,1,1,3.36523,14.61719c-21.93847,5.05175-26.69726,9.54394-27.72558,11.24121a.85215.85215,0,0,0-.11914.85644c.46484,1.78125,3.33886,6.51075,19.95215,11.97559,12.8955,4.24121,29.92773,7.59863,46.39843,10.8457,33.34961,6.57324,62.15039,12.251,70.95215,25.99707a17.17845,17.17845,0,0,1,2.28418,13.59375c-3.99121,16.50977-29.32129,23.96778-58.65137,32.60449-19.05468,5.61036-42.76855,12.59278-46.83593,20.14747a2.70886,2.70886,0,0,0-.20215,2.36523c2.3125,7.56738,19.99316,14.77734,34.20019,20.57031,22.96289,9.36426,48.99024,19.97754,44.02344,42.02832A7.50319,7.50319,0,0,1,291.51483,367.668Z"></path><path fill="#595f74" d="M220.48553,367.668a7.50321,7.50321,0,0,1-7.30957-5.85352c-4.96679-22.05078,21.06055-32.66406,44.02344-42.02832,14.207-5.793,31.8877-13.00293,34.2002-20.57031a2.70886,2.70886,0,0,0-.20215-2.36523c-4.06738-7.55469-27.78125-14.53711-46.83594-20.14747-29.33008-8.63671-54.66016-16.09472-58.65137-32.60449a17.17854,17.17854,0,0,1,2.28418-13.59375c8.80176-13.74609,37.60254-19.42383,70.95215-25.99707,16.4707-3.24707,33.50293-6.60449,46.39844-10.8457,16.61328-5.46484,19.4873-10.19434,19.95215-11.97461a.85365.85365,0,0,0-.11914-.85742c-1.02832-1.69727-5.78809-6.19043-27.73047-11.24219a7.49978,7.49978,0,0,1,3.36523-14.61719c21.373,4.91992,32.4961,10.33008,37.19532,18.08887a15.76986,15.76986,0,0,1,1.80273,12.417c-5.05859,19.377-38.84375,26.03614-77.96387,33.74805-24.8916,4.90625-55.87011,11.01269-61.21972,19.36816a2.22122,2.22122,0,0,0-.33692,1.98047c.333,1.37988,2.37891,5.14649,14.14453,10.31641,9.41407,4.13672,21.9961,7.84082,34.16309,11.42383,26.1709,7.706,48.77246,14.36132,55.80664,27.4248a17.71955,17.71955,0,0,1,1.34082,13.86035c-4.39551,14.38282-23.08984,22.00586-42.88184,30.07715-21.09472,8.60254-37.07031,15.89356-35.05468,24.8418a7.50859,7.50859,0,0,1-7.32325,9.15039Z"></path><path fill="#ff4e4e" d="M343.63007 131.25h-29.77a56.74587 56.74587 0 0 1-14.07984-11.28A57.59544 57.59544 0 0 1 288.89032 102.28a7.49941 7.49941 0 0 1 13.96973-5.46 42.61449 42.61449 0 0 0 8.05 13.08984c8.90015 9.84009 20.37012 12.96021 26.41016 13.94019A7.50619 7.50619 0 0 1 343.63007 131.25zM223.11005 102.28A57.59547 57.59547 0 0 1 212.22015 119.97a56.746 56.746 0 0 1-14.07983 11.28h-29.77a7.50618 7.50618 0 0 1 6.30981-7.3999c6.04-.98 17.51-4.1001 26.41016-13.94019a42.61471 42.61471 0 0 0 8.05-13.08984 7.49941 7.49941 0 0 1 13.96973 5.46z"></path><circle cx="256" cy="25" r="17.5" fill="#676e87"></circle></svg>