<svg xmlns="http://www.w3.org/2000/svg" xmlns:xlink="http://www.w3.org/1999/xlink" width="48" height="48" id="heart"><defs><linearGradient id="b" x1="992.183" x2="1019.298" y1="516.081" y2="545.959" gradientTransform="translate(-1522.705 211.343) scale(1.53785)" gradientUnits="userSpaceOnUse" xlink:href="#a"></linearGradient><linearGradient id="a"><stop offset="0" stop-color="#ff1679"></stop><stop offset="1" stop-color="#ff770b"></stop></linearGradient></defs><g transform="translate(0 -1004.362)"><rect width="48" height="48" y="1004.362" fill="url(#b)" rx="10.144" ry="10.144"></rect><path fill="#fff" fill-rule="evenodd" style="line-height:normal;text-indent:0;text-align:start;text-decoration-line:none;text-decoration-style:solid;text-decoration-color:#000;text-transform:none;block-progression:tb;isolation:auto;mix-blend-mode:normal" d="M18.896 1019.806c-1.51 0-3.018.576-4.17 1.73a5.888 5.888 0 0 0-1.713 4.51c-1.015.303-1.797.639-2.324 1.056-.298.237-.531.51-.637.85-.105.34-.04.728.15 1.031.381.608 1.108.994 2.116 1.36 1.006.365 2.312.673 3.873.916l7.443 6.968a.5.5 0 0 0 .342.135h.016a.5.5 0 0 0 .341-.135l7.446-6.97c1.383-.216 2.63-.485 3.627-.819.835-.28 1.466-.58 1.916-.941.45-.36.75-.863.66-1.39-.09-.528-.486-.915-1.022-1.245-.492-.303-1.159-.57-1.974-.814a5.998 5.998 0 0 0-1.744-4.512.5.5 0 0 0-.16-.107.5.5 0 0 0-.006 0c-2.313-2.163-5.921-2.15-8.176.109l-.916.92-.918-.92a5.873 5.873 0 0 0-4.17-1.73zm0 .988c1.25 0 2.5.483 3.463 1.447l1.271 1.274a.5.5 0 0 0 .707 0l1.272-1.274a4.875 4.875 0 0 1 3.46-1.447c1.25 0 2.501.483 3.464 1.447a.5.5 0 0 0 .002 0 .5.5 0 0 0 .002 0c1.92 1.928 1.982 5.075.01 6.922l-1.217 1.139c-3.108.452-7.033.625-10.803.4a.5.5 0 1 0-.059.998c3.298.197 6.68.108 9.6-.217l-6.084 5.696-8.55-8.004h-.003a4.89 4.89 0 0 1 .002-6.936 4.879 4.879 0 0 1 3.463-1.447zm-5.738 6.254c.24 1.04.759 2.029 1.568 2.84a.5.5 0 0 0 .012.012l.086.08c-.832-.177-1.588-.367-2.166-.577-.916-.332-1.47-.73-1.608-.949-.068-.11-.064-.137-.043-.207.022-.07.105-.202.303-.36.333-.263.974-.563 1.848-.84zm21.691.01c.68.215 1.236.44 1.586.656.412.254.546.476.56.563.015.087-.002.202-.298.439-.296.238-.839.516-1.608.773-.556.187-1.231.348-1.955.498l.096-.088a5.537 5.537 0 0 0 1.62-2.841z" color="#000" font-family="sans-serif" font-weight="400" overflow="visible"></path></g></svg>