<svg xmlns="http://www.w3.org/2000/svg" xmlns:xlink="http://www.w3.org/1999/xlink" width="48" height="48" id="hand"><defs><linearGradient id="b" x1="992.183" x2="1019.298" y1="516.081" y2="545.959" gradientTransform="translate(-1522.705 211.343) scale(1.53785)" gradientUnits="userSpaceOnUse" xlink:href="#a"></linearGradient><linearGradient id="a"><stop offset="0" stop-color="#ff1679"></stop><stop offset="1" stop-color="#ff770b"></stop></linearGradient></defs><g transform="translate(0 -1004.362)"><rect width="48" height="48" y="1004.362" fill="url(#b)" rx="10.144" ry="10.144"></rect><path style="line-height:normal;text-indent:0;text-align:start;text-decoration-line:none;text-decoration-style:solid;text-decoration-color:#000;text-transform:none;block-progression:tb;isolation:auto;mix-blend-mode:normal" fill="#fff" d="M26.842 1016.86c-.983 0-1.967.373-2.717 1.12a3.823 3.823 0 0 0 0 5.415.5.5 0 0 0 .014.012l5.508 5.13a.5.5 0 0 0 .34.134H29.996a.5.5 0 0 0 .34-.135l5.51-5.129c1.564-1.456 1.51-3.934.012-5.427a.5.5 0 0 0-.164-.11h-.002c-1.508-1.35-3.816-1.335-5.266.11l-.436.433-.433-.433a3.833 3.833 0 0 0-2.715-1.12zm0 .99c.725 0 1.45.28 2.01.836l.787.784a.5.5 0 0 0 .705 0l.787-.784a2.834 2.834 0 0 1 4.02 0 .5.5 0 0 0 .003 0c1.117 1.115 1.151 2.925.01 3.987l-5.172 4.814-5.16-4.803a2.803 2.803 0 0 1 0-4 2.838 2.838 0 0 1 2.01-.835zm-17.338 8.262a.5.5 0 0 0-.5.5v10.184a.5.5 0 0 0 .5.5h5.471a.5.5 0 0 0 .5-.5v-.737l9.34 3.164a.5.5 0 0 0 .039.01c1.087.276 2.342.113 3.29-.525l9.673-5.256a.5.5 0 0 0 .007 0l.237-.135a1.835 1.835 0 0 0 .793-2.302c-.307-.726-.91-1.058-1.381-1.127-.471-.07-.858.064-.858.064a.5.5 0 0 0-.048.022l-5.332 2.472c.006-.067.021-.132.021-.2 0-1.124-.93-2.038-2.059-2.038h-4.439c-.02-.034-.041-.082-.059-.113a5.014 5.014 0 0 0-.886-1.164 5.193 5.193 0 0 0-3.643-1.475h-4.695v-.84a.5.5 0 0 0-.5-.5H9.504zm.5 1h4.471v9.184h-4.471v-9.184zm5.47 1.34h4.696a4.181 4.181 0 0 1 3.447 1.789c.075.108.144.22.207.334.079.142.132.228.174.326l.13.303h5.069c.6 0 1.06.458 1.06 1.037 0 .434-.26.798-.642.953h-.005c-.126.05-.265.08-.413.08h-6.955v1h6.955c.21 0 .407-.042.598-.1a.5.5 0 0 0 .172-.043l6.978-3.236c.009 0 .174-.054.383-.023.215.03.421.09.606.527a.817.817 0 0 1-.365 1.043l-.235.13-9.707 5.278a.5.5 0 0 0-.04.025c-.66.443-1.684.59-2.485.387H25.1l-9.625-3.26v-6.553z" color="#000" font-family="sans-serif" font-weight="400" overflow="visible"></path></g></svg>