<svg id="Layer_1" data-name="Layer 1" xmlns="http://www.w3.org/2000/svg" viewBox="0 0 146.63 146.21">

    <path fill="#49bce2" d="M73.11,41.43a31.68,31.68,0,1,0,31.68,31.68A31.68,31.68,0,0,0,73.11,41.43Zm19.9,38H79.43V93.08H66.78V79.43H53.21V66.78H66.78V53.13H79.43V66.78H93Z"/>
    <path fill="#49bce2" d="M73.11,125.24A52.13,52.13,0,0,1,21,74.49h0V21.88a73.09,73.09,0,1,0,107.67,98.74L112.71,107A52,52,0,0,1,73.11,125.24Z"/>
    <path fill="#49bce2" d="M73.11,0A72.82,72.82,0,0,0,44.3,5.91L44,6.06a3.76,3.76,0,0,0-2.13,3.37v22A52.14,52.14,0,0,1,113.36,40l16.19-13.33A73,73,0,0,0,73.11,0Z"/>

</svg>