<?xml version="1.0" standalone="no"?>
<!DOCTYPE svg PUBLIC "-//W3C//DTD SVG 20010904//EN"
 "http://www.w3.org/TR/2001/REC-SVG-20010904/DTD/svg10.dtd">
<svg version="1.0" xmlns="http://www.w3.org/2000/svg"
 width="384.000000pt" height="84.000000pt" viewBox="0 0 384.000000 84.000000"
 preserveAspectRatio="xMidYMid meet">

<g transform="translate(0.000000,84.000000) scale(0.100000,-0.100000)"
fill="#000000" stroke="none">
<path d="M130 435 c0 -176 2 -205 15 -205 13 0 15 27 15 183 0 113 4 176 10
167 5 -9 33 -83 64 -165 30 -83 58 -158 61 -168 5 -11 16 -17 27 -15 16 2 33
39 83 177 36 95 67 176 70 179 3 3 5 -76 5 -176 0 -155 2 -182 15 -182 13 0
15 29 15 205 l0 205 -27 0 c-27 0 -30 -6 -93 -179 -35 -99 -67 -178 -70 -176
-3 2 -34 82 -70 179 -63 169 -66 176 -92 176 l-28 0 0 -205z"/>
<path d="M1160 560 l0 -79 -36 24 c-64 44 -138 30 -181 -34 -28 -41 -32 -135
-8 -185 32 -67 122 -87 189 -41 34 23 36 23 36 5 0 -11 7 -20 15 -20 13 0 15
29 15 205 0 176 -2 205 -15 205 -12 0 -15 -16 -15 -80z m-45 -82 c54 -47 53
-165 -2 -207 -28 -23 -82 -27 -115 -10 -39 21 -61 115 -39 172 26 66 105 89
156 45z"/>
<path d="M1280 615 c0 -18 5 -25 20 -25 15 0 20 7 20 25 0 18 -5 25 -20 25
-15 0 -20 -7 -20 -25z"/>
<path d="M1730 435 l0 -207 124 4 c114 3 126 5 149 26 50 47 39 148 -18 174
l-26 12 28 22 c23 18 28 30 28 68 0 36 -6 51 -28 73 -26 27 -32 28 -142 31
l-115 4 0 -207z m230 150 c30 -27 27 -78 -6 -104 -22 -17 -41 -21 -105 -21
l-79 0 0 76 0 77 85 -5 c63 -3 89 -9 105 -23z m17 -189 c30 -36 30 -80 -2
-111 -22 -23 -32 -25 -115 -25 l-90 0 0 86 0 87 92 -5 c84 -5 94 -8 115 -32z"/>
<path d="M2750 435 c0 -198 1 -205 20 -205 18 0 20 7 21 58 0 50 3 60 28 79
l29 23 52 -80 c37 -56 59 -80 72 -80 23 0 28 -9 -59 120 l-43 65 52 52 c43 44
49 53 31 53 -12 0 -51 -28 -92 -66 l-71 -66 0 126 c0 119 -1 126 -20 126 -19
0 -20 -7 -20 -205z"/>
<path d="M3050 615 c0 -18 5 -25 20 -25 15 0 20 7 20 25 0 18 -5 25 -20 25
-15 0 -20 -7 -20 -25z"/>
<path d="M656 510 c-60 -39 -84 -138 -52 -215 38 -91 187 -101 231 -15 18 34
18 40 4 40 -6 0 -25 -16 -43 -35 -38 -40 -85 -47 -125 -19 -21 15 -51 70 -51
94 0 6 43 10 116 10 l117 0 -6 47 c-7 66 -57 113 -119 113 -26 0 -55 -8 -72
-20z m132 -33 c12 -13 25 -37 28 -55 l7 -32 -95 0 c-52 0 -97 3 -101 6 -9 9
11 56 35 82 30 31 96 31 126 -1z"/>
<path d="M1475 520 c-53 -22 -92 -104 -81 -172 14 -89 58 -128 142 -128 39 0
51 5 80 34 35 35 45 76 19 76 -8 0 -15 -7 -15 -15 0 -9 -11 -27 -25 -40 -26
-27 -80 -34 -116 -15 -65 35 -65 195 0 230 11 5 36 10 55 10 28 0 41 -7 63
-35 15 -19 34 -35 41 -35 23 0 12 32 -22 66 -29 29 -41 34 -77 33 -24 0 -53
-4 -64 -9z"/>
<path d="M2175 520 c-74 -30 -102 -152 -56 -238 30 -56 124 -79 182 -45 37 22
69 87 69 139 -1 55 -32 119 -69 138 -32 17 -93 20 -126 6z m126 -49 c25 -26
29 -37 29 -86 0 -90 -33 -135 -100 -135 -82 0 -126 99 -86 194 17 42 39 55 89
56 29 0 45 -7 68 -29z"/>
<path d="M2483 510 c-44 -26 -63 -68 -63 -137 0 -95 51 -153 135 -153 107 0
167 123 116 237 -32 70 -120 95 -188 53z m136 -34 c31 -33 44 -97 31 -146 -31
-115 -178 -104 -196 15 -14 94 25 155 99 155 33 0 49 -6 66 -24z"/>
<path d="M3243 511 c-27 -17 -33 -18 -33 -6 0 8 -9 15 -20 15 -19 0 -20 -7
-20 -145 0 -138 1 -145 20 -145 19 0 20 7 20 100 0 105 13 151 45 164 23 8 77
7 92 -2 23 -14 33 -64 33 -163 0 -81 3 -99 15 -99 12 0 15 20 15 119 0 110 -2
122 -23 146 -31 37 -99 44 -144 16z"/>
<path d="M3565 520 c-11 -4 -31 -20 -45 -35 -21 -22 -25 -38 -28 -98 -3 -63
-1 -77 20 -107 13 -19 35 -41 48 -48 37 -19 116 -10 145 18 28 26 31 17 15
-41 -13 -48 -36 -66 -92 -74 -44 -7 -50 -5 -78 24 -45 44 -65 39 -39 -11 17
-31 73 -50 127 -42 106 16 122 49 122 258 0 132 -2 156 -15 156 -8 0 -15 -9
-15 -20 0 -11 -4 -20 -10 -20 -5 0 -10 4 -10 8 0 4 -13 15 -29 25 -31 18 -82
21 -116 7z m118 -41 c82 -63 40 -229 -58 -229 -95 0 -142 151 -68 224 33 33
89 35 126 5z"/>
<path d="M1280 375 c0 -138 1 -145 20 -145 19 0 20 7 20 145 0 138 -1 145 -20
145 -19 0 -20 -7 -20 -145z"/>
<path d="M3050 375 c0 -122 2 -145 15 -145 13 0 15 23 15 145 0 122 -2 145
-15 145 -13 0 -15 -23 -15 -145z"/>
</g>
</svg>
