<svg xmlns="http://www.w3.org/2000/svg" xmlns:xlink="http://www.w3.org/1999/xlink" viewBox="0 0 20 20" id="medical"><defs><linearGradient id="a"><stop offset="0" stop-color="#000092"></stop><stop offset="1" stop-color="#ff00f3"></stop></linearGradient><linearGradient id="b" x1="2.446" x2="15" y1="9.55" y2="9.55" gradientUnits="userSpaceOnUse" xlink:href="#a"></linearGradient></defs><path fill="url(#b)" d="M8.4 2c-.41 0-.805.158-1.054.45C7.096 2.74 7 3.116 7 3.5v.238l-.213-.148a.5.5 0 0 0-.03-.02c-.693-.416-1.649-.254-2.085.473l-1.787 2.68a.5.5 0 0 0-.014.02c-.416.693-.296 1.59.328 2.058a.5.5 0 0 0 .018.011l.982.676-1.056.684c-.727.436-.887 1.392-.471 2.086a.5.5 0 0 0 .02.03l1.878 2.669c.462.769 1.463.943 2.13.443l-.042.03.242-.147v.317c0 .383.097.76.346 1.05.25.292.644.45 1.055.45H11.6c.41 0 .805-.158 1.054-.45.25-.29.346-.667.346-1.05v-.317l.242.147c.694.416 1.65.254 2.086-.473l1.787-2.68a.5.5 0 0 0 .014-.02c.416-.693.296-1.59-.328-2.058a.5.5 0 0 0-.03-.02l-1.05-.679 1.037-.672c.727-.436.887-1.392.47-2.086a.5.5 0 0 0-.011-.02L15.43 4.044h-.002c-.462-.768-1.461-.943-2.127-.443l.04-.03-.241.147V3.5c0-.383-.097-.76-.346-1.05-.25-.292-.644-.45-1.055-.45H8.4zm0 1h3.3c.188 0 .246.04.296.1.05.058.104.183.104.4v1.1a.5.5 0 0 0 .757.43l1-.6a.5.5 0 0 0 .043-.03c.134-.1.532-.074.67.157a.5.5 0 0 0 .014.021l1.787 2.68c.184.306.144.549-.129.713a.5.5 0 0 0-.013.01l-1.7 1.1a.5.5 0 0 0 0 .839L16.2 11c.176.132.255.434.072.74l-1.787 2.682a.5.5 0 0 0-.013.021c-.164.273-.407.311-.713.127l-1-.6a.5.5 0 0 0-.758.43v1.2c0 .216-.055.341-.105.4-.05.059-.107.1-.295.1H8.3c-.188 0-.246-.041-.296-.1-.05-.059-.104-.184-.104-.4v-1.2a.5.5 0 0 0-.757-.43l-1 .6a.5.5 0 0 0-.043.03c-.134.1-.532.074-.67-.157a.5.5 0 0 0-.022-.03l-1.879-2.67v-.003c-.182-.305-.143-.547.13-.71a.5.5 0 0 0 .013-.01l1.7-1.1a.5.5 0 0 0 .01-.832L3.802 8c-.176-.132-.255-.434-.072-.74v-.002l1.787-2.68a.5.5 0 0 0 .013-.021c.164-.273.406-.31.711-.127h.002l.97.68A.5.5 0 0 0 8 4.7V3.5c0-.217.055-.342.105-.4.05-.06.107-.1.295-.1zM10 4c-.3 0-.5.2-.5.5v.834l-.1-.033c-.3-.1-.5.099-.6.299-.1.3 0 .5.3.6l.4.116v1.079l-.9.205h-.1c-.4.2-.6.7-.6 1.1.1.5.4.9.9 1l.7.146v.875l-1.2.08h-.1c-.4.2-.6.6-.6 1s.2.8.6 1h.1l1.2.29V14.5c0 .3.2.5.5.5s.5-.2.5-.5v-1.166l1.1.266h.1c.2 0 .4-.1.5-.4.1-.2-.1-.4-.3-.5l-1.4-.35v-.97l1.2-.08h.1c.4-.2.7-.6.6-1.1-.1-.5-.4-.9-.9-1l-1-.16V8.036l.6-.137h.1c.3-.2.6-.5.6-.9s-.2-.8-.5-1c0-.1-.1-.1-.1-.1l-.7-.232V4.5c0-.3-.3-.5-.5-.5zm.5 2.611.3.088c.1.1.1.201.1.201 0 .1 0 .1-.1.2l-.3.068v-.557zm-1 1.653v.617L9 8.8c-.2 0-.2-.201-.2-.201s0-.1.1-.2l.6-.136zm1 1.789.7.146c.2 0 .2.201.2.201s0 .1-.1.2l-.8.052v-.6zm-1 1.394v.653l-.8-.2c-.1-.1-.1-.2-.1-.2 0-.1 0-.1.1-.2l.8-.053z" color="#000" font-family="sans-serif" font-weight="400" overflow="visible" style="line-height:normal;text-indent:0;text-align:start;text-decoration-line:none;text-decoration-style:solid;text-decoration-color:#000;text-transform:none;block-progression:tb;isolation:auto;mix-blend-mode:normal"></path></svg>